# xmcd
#
# Track frame offsets:
#	183
#	11918
#	23193
#	36080
#	48023
#	62625
#	74348
#	89293
#	100810
#	116843
#	130708
#	141978
#	154335
#	166968
#
# Disc length: 2359 seconds
#
# Revision: 1
# Processed by: cddbd v1.5.2PL0 Copyright (c) Steve Scherf et al.
# Submitted via: audiograbber 1.83.01
#
DISCID=bc09350e
DTITLE=Connie Francis - Love Songs
DYEAR=1900
DGENRE=Oldies
TTITLE0=Carolina Moon
TTITLE1=My Happiness
TTITLE2=I Can't Stop Loving You
TTITLE3=Breaking' In A Brand New Heart
TTITLE4=True Love
TTITLE5=Make It Easy On Yourself
TTITLE6=I Say A Little Prayer
TTITLE7=It's Only Make Believe
TTITLE8=What The World Needs Now Is Love
TTITLE9=Don't Break The Heart That Loves You
TTITLE10=All By Myself
TTITLE11=Moon River
TTITLE12=Love Is A Many Splendoured Thing
TTITLE13=La Vie En Rose
EXTD=
EXTT0=
EXTT1=
EXTT2=
EXTT3=
EXTT4=
EXTT5=
EXTT6=
EXTT7=
EXTT8=
EXTT9=
EXTT10=
EXTT11=
EXTT12=
EXTT13=
PLAYORDER=
